<?xml version="1.0" encoding="UTF-8" standalone="no"?>
<!-- Created with Inkscape (http://www.inkscape.org/) -->

<svg
   width="210mm"
   height="297mm"
   viewBox="0 0 210 297"
   version="1.1"
   id="svg1"
   inkscape:version="1.3.2 (091e20e, 2023-11-25, custom)"
   sodipodi:docname="louie atual.svg"
   xmlns:inkscape="http://www.inkscape.org/namespaces/inkscape"
   xmlns:sodipodi="http://sodipodi.sourceforge.net/DTD/sodipodi-0.dtd"
   xmlns:xlink="http://www.w3.org/1999/xlink"
   xmlns="http://www.w3.org/2000/svg"
   xmlns:svg="http://www.w3.org/2000/svg">
  <sodipodi:namedview
     id="namedview1"
     pagecolor="#ffffff"
     bordercolor="#000000"
     borderopacity="0.25"
     inkscape:showpageshadow="2"
     inkscape:pageopacity="0.0"
     inkscape:pagecheckerboard="0"
     inkscape:deskcolor="#d1d1d1"
     inkscape:document-units="mm"
     inkscape:zoom="0.7375"
     inkscape:cx="387.79661"
     inkscape:cy="453.55932"
     inkscape:window-width="1920"
     inkscape:window-height="1009"
     inkscape:window-x="1912"
     inkscape:window-y="-8"
     inkscape:window-maximized="1"
     inkscape:current-layer="layer1" />
  <defs
     id="defs1">
    <linearGradient
       id="linearGradient20"
       inkscape:collect="always">
      <stop
         style="stop-color:#008ed8;stop-opacity:1;"
         offset="0"
         id="stop20" />
      <stop
         style="stop-color:#00d876;stop-opacity:1;"
         offset="1"
         id="stop21" />
    </linearGradient>
    <linearGradient
       inkscape:collect="always"
       xlink:href="#linearGradient20"
       id="linearGradient21"
       x1="110.27815"
       y1="88.454544"
       x2="102.54736"
       y2="183.88393"
       gradientUnits="userSpaceOnUse" />
    <linearGradient
       inkscape:collect="always"
       xlink:href="#linearGradient20"
       id="linearGradient22"
       gradientUnits="userSpaceOnUse"
       x1="110.27815"
       y1="88.454544"
       x2="102.54736"
       y2="183.88393"
       gradientTransform="translate(24.224163,-14.965486)" />
  </defs>
  <g
     inkscape:label="Camada 1"
     inkscape:groupmode="layer"
     id="layer1">
    <circle
       style="display:inline;fill:#ffffff;fill-opacity:1;stroke:#000000;stroke-width:1.791;stroke-linecap:round;stroke-linejoin:bevel;stroke-dashoffset:1056.73;stroke-opacity:1;paint-order:markers fill stroke"
       id="path9"
       cx="118.03107"
       cy="104.03954"
       r="60.629944"
       inkscape:label="bg" />
    <path
       style="display:inline;fill:url(#linearGradient21);fill-opacity:1;fill-rule:nonzero;stroke:#000000;stroke-width:1.791;stroke-linejoin:bevel;stroke-dashoffset:1056.73;stroke-opacity:0;paint-order:markers fill stroke"
       d="M 84.774837,85.452663 C 84.9362,97.766837 60.249723,123.0428 78.19924,138.41941 c 16.634664,-8.60767 27.02301,16.36067 59.26987,-0.85006 -25.96071,-9.11159 -47.183606,-22.6742 -45.16128,-46.624446 1.092504,-12.938436 1.369349,-13.233252 16.11581,-17.406881 0,0 20.62004,-6.817627 34.51859,0.136157 0,0 -15.81287,-11.001257 -34.8376,-8.745158 -11.347317,1.345652 -23.484796,8.694828 -23.329793,20.523641 z"
       id="path3"
       sodipodi:nodetypes="sccsccss"
       inkscape:label="cabelo" />
    <g
       id="g11"
       inkscape:label="cortes no cabelo"
       style="display:inline">
      <path
         style="display:inline;fill:#ffffff;fill-opacity:1;stroke-width:1.791;stroke-linejoin:bevel;stroke-dashoffset:1056.73;paint-order:markers fill stroke"
         d="m 99.568583,87.850575 c 0,0 5.047627,-9.063775 8.218627,-18.513338 2.66364,7.229867 -5.12295,17.431627 -0.10213,18.191344 -0.35876,4.484463 -8.116497,0.321994 -8.116497,0.321994 z"
         id="path5-2-1"
         sodipodi:nodetypes="cccc" />
      <path
         style="display:inline;fill:#ffffff;fill-opacity:1;stroke:none;stroke-width:1.791;stroke-linecap:round;stroke-linejoin:bevel;stroke-dashoffset:1056.73;stroke-opacity:1;paint-order:markers fill stroke"
         d="m 84.09477,127.60081 c 2.536795,18.77229 10.147183,14.96709 10.147183,14.96709"
         id="path6"
         sodipodi:nodetypes="cc" />
      <path
         style="display:inline;fill:#ffffff;fill-opacity:1;stroke:none;stroke-width:1.791;stroke-linecap:round;stroke-linejoin:bevel;stroke-dashoffset:1056.73;stroke-opacity:1;paint-order:markers fill stroke"
         d="m 101.26406,135.88 c 2.5368,18.77229 8.49827,9.76666 8.49827,9.76666"
         id="path6-5"
         sodipodi:nodetypes="cc" />
    </g>
    <g
       id="g10"
       inkscape:label="nariz">
      <path
         style="fill:#000000;fill-opacity:1;stroke:none;stroke-width:3.62047;stroke-linecap:round;stroke-linejoin:bevel;stroke-dashoffset:1056.73;stroke-opacity:1;paint-order:markers fill stroke"
         d="m 133.60663,97.151837 c 6.31534,4.865673 7.79163,8.668873 8.93734,15.400593 0,0 -0.9861,3.33986 -9.42158,1.58664 0.32206,-5.63605 2.32314,-5.47784 0.48424,-16.987233 z"
         id="path7"
         sodipodi:nodetypes="cccc"
         inkscape:transform-center-x="-0.39247609"
         inkscape:transform-center-y="-0.95034039" />
      <path
         style="display:inline;fill:#ffffff;fill-opacity:1;stroke:none;stroke-width:2.12508;stroke-linecap:round;stroke-linejoin:bevel;stroke-dashoffset:1056.73;stroke-opacity:1;paint-order:markers fill stroke"
         d="m 131.94151,96.567608 c 3.72579,-0.63716 4.66806,14.460942 3.93324,14.814562 -10.80379,5.19922 -9.20683,-13.912706 -3.93324,-14.814562 z"
         id="path8-5"
         sodipodi:nodetypes="sss" />
    </g>
    <g
       id="g9"
       inkscape:label="olhos">
      <path
         style="display:inline;fill:#000000;fill-opacity:1;stroke:none;stroke-width:2.12508;stroke-linecap:round;stroke-linejoin:bevel;stroke-dashoffset:1056.73;stroke-opacity:1;paint-order:markers fill stroke"
         d="m 123.23433,88.512506 c 6.326,-0.510322 7.77258,17.771994 1.01592,17.668464 -5.75288,-0.0882 -6.34875,-17.238264 -1.01592,-17.668464 z"
         id="path8"
         sodipodi:nodetypes="sss" />
      <path
         style="display:inline;fill:#000000;fill-opacity:1;stroke:none;stroke-width:2.12508;stroke-linecap:round;stroke-linejoin:bevel;stroke-dashoffset:1056.73;stroke-opacity:1;paint-order:markers fill stroke"
         d="m 141.23141,88.244807 c 6.326,-0.510322 7.77258,17.771993 1.01592,17.668463 -5.75288,-0.0882 -6.34875,-17.238263 -1.01592,-17.668463 z"
         id="path8-4"
         sodipodi:nodetypes="sss" />
    </g>
    <path
       style="display:none;fill:none;fill-opacity:1;fill-rule:nonzero;stroke:#000000;stroke-width:1.791;stroke-linecap:round;stroke-linejoin:round;stroke-dasharray:none;stroke-dashoffset:1056.73;stroke-opacity:1;paint-order:markers fill stroke"
       d="M 84.774837,85.452663 C 86.48685,97.648315 60.249723,123.0428 78.19924,138.41941 c 16.634664,-8.60767 27.02301,16.36067 59.26987,-0.85006 -25.96071,-9.11159 -46.89432,-26.41848 -45.16128,-50.391395 0.908618,-12.568797 4.116303,-14.163881 18.70779,-17.366317 0,0 -2.05,3.042762 -3.78635,13.928045 13.41011,5.055933 34.02526,-2.758365 47.5159,1.907787 0,0 3.70522,-20.699812 -8.30511,-25.261101 -29.90175,-11.356103 -64.294906,6.333552 -61.665223,25.066294 z"
       id="path3-1"
       sodipodi:nodetypes="sccscccss"
       inkscape:label="cabelo contorno" />
    <path
       style="display:inline;fill:url(#linearGradient22);fill-opacity:1;fill-rule:nonzero;stroke:#000000;stroke-width:1.791;stroke-linejoin:bevel;stroke-dashoffset:1056.73;stroke-opacity:0;paint-order:markers fill stroke"
       d="m 144.59433,126.62436 c 3.95794,-0.93784 10.18418,-5.1979 18.08552,-4.64832 0,0 -7.30415,-9.65355 -14.84626,-10.53883 0,0 -0.19246,9.08346 -3.23926,15.18715 z"
       id="path3-6"
       sodipodi:nodetypes="cccc"
       inkscape:label="cabelo" />
  </g>
</svg>
